<svg id="svg" fill="#000000" stroke="#000000" width="65" height="65" version="1.1" viewBox="144 144 512 512" xmlns="http://www.w3.org/2000/svg">
    <g id="IconSvg_bgCarrier" stroke-width="0"></g>
    <g id="IconSvg_tracerCarrier" stroke-linecap="round" stroke-linejoin="round" stroke="#CCCCCC" stroke-width="0">
      <g xmlns="http://www.w3.org/2000/svg">
  <path d="m351.63 402.12c-2.3516 0-4.4766-1.457-5.2617-3.8047-5.1484-14.777-13.883-36.387-26.98-54.859-15.227-21.609-31.684-32.914-49.148-33.586 20.938 34.258 30.004 65.16 34.035 85.535 0.55859 3.0234-1.457 5.9336-4.4766 6.6055-3.0234 0.55859-5.9336-1.457-6.6055-4.4766-4.0312-21.047-13.883-53.629-37.504-89.566-1.0078-1.5664-1.2305-3.582-0.44922-5.375 0.78516-1.793 2.3516-2.9102 4.2539-3.2461 24.965-4.0312 48.812 8.957 68.965 37.617 13.77 19.594 23.062 42.207 28.438 57.656 1.0078 2.9102-0.55859 6.1562-3.4688 7.1641-0.56641 0.22656-1.2383 0.33594-1.7969 0.33594z"></path>
  <path d="m453.07 402.12c-0.33594 0-0.67188 0-1.1211-0.11328-3.0234-0.55859-5.0391-3.582-4.3672-6.6055 3.0234-15.004 10.078-44 23.512-69.078 17.801-33.141 41.648-49.82 68.742-48.477 1.9023 0.11328 3.582 1.1211 4.5898 2.8008 1.0078 1.6797 1.0078 3.582 0.22266 5.375-22.727 45.68-28.66 89.117-30.117 110.95-0.22266 3.1367-2.9102 5.375-5.9336 5.1484-3.1367-0.22266-5.375-2.9102-5.1484-5.9336 1.793-25.973 7.9492-64.824 27.207-106.81-19.145 2.4648-35.828 16.684-49.598 42.32-12.762 23.734-19.48 51.5-22.391 65.941-0.55859 2.5781-2.9102 4.4805-5.5977 4.4805z"></path>
  <path d="m318.72 338.76c-0.44922 0-0.78516 0-1.2305-0.11328-3.0234-0.67188-4.9258-3.582-4.2539-6.6055 0.11328-0.67187 6.8281-40.977-54.746-134.68-1.0078-1.5664-1.2305-3.582-0.44922-5.375 0.78516-1.6797 2.3516-3.0234 4.2539-3.2461 82.848-13.547 132.45 94.379 149.91 141.4 1.1211 2.9102-0.44922 6.1562-3.2461 7.1641-2.9102 1.1211-6.1562-0.44922-7.1641-3.2461-15.898-42.656-59.336-138.38-128.86-135.13 59.672 93.598 51.836 133.79 51.387 135.47-0.78516 2.5742-3.0234 4.3672-5.5977 4.3672z"></path>
  <path d="m431.01 264.3h-0.33594c-3.1367-0.11328-5.4844-2.8008-5.2617-5.9336 1.5664-31.125 6.7188-62.473 15.34-93.371-32.805 7.1641-56.762 35.602-71.43 84.641-0.89453 3.0234-4.0312 4.7031-6.9414 3.8047-2.9102-0.89453-4.5898-4.0312-3.8047-6.9414 17.016-57.098 47.918-89.566 89.344-93.934 1.9023-0.22266 3.6953 0.55859 4.9258 2.0156 1.2305 1.457 1.5664 3.3594 1.0078 5.1484-9.8516 32.805-15.676 66.277-17.352 99.305-0.12109 3.0273-2.582 5.2656-5.4922 5.2656z"></path>
  <path d="m398.88 402.12h-0.22266c-3.1367-0.11328-5.4844-2.8008-5.375-5.8203 1.0078-21.719 5.7109-77.586 26.645-127.07 9.5156-22.617 21.16-40.641 34.707-53.738 15.785-15.34 34.148-23.734 54.523-25.191 1.9023-0.11328 3.6953 0.67187 4.8125 2.1289 1.1211 1.457 1.457 3.4688 0.89453 5.2617-12.988 37.84-20.488 76.469-22.391 114.64-0.11328 3.1367-2.8008 5.4844-5.8203 5.375-3.1367-0.11328-5.4844-2.8008-5.375-5.8203 1.793-36.387 8.5078-73.109 20.152-109.27-29.668 5.5977-53.629 29.445-71.207 70.98-20.266 47.918-24.742 102.22-25.75 123.27-0.10938 2.9023-2.6836 5.2539-5.5938 5.2539z"></path>
  <path d="m520.24 437.17h-240.48c-3.1367 0-5.5977-2.4648-5.5977-5.5977v-35.043c0-3.1367 2.4648-5.5977 5.5977-5.5977h240.48c3.1367 0 5.5977 2.4648 5.5977 5.5977v35.043c0 3.0234-2.4648 5.5977-5.5977 5.5977zm-234.89-11.195h229.29v-23.848h-229.29z"></path>
  <path d="m432.58 590.89c-3.1367 0-5.5977-2.4648-5.5977-5.5977 0-3.1367 2.4648-5.5977 5.5977-5.5977 23.512 0 42.77-19.145 42.77-42.77v-63.48c0-3.1367 2.4648-5.5977 5.5977-5.5977 3.1367 0 5.5977 2.4648 5.5977 5.5977v63.48c0 29.781-24.184 53.965-53.965 53.965z"></path>
  <path d="m432.58 612.38c-3.1367 0-5.5977-2.4648-5.5977-5.5977 0-3.1367 2.4648-5.5977 5.5977-5.5977 35.379 0 64.266-28.773 64.266-64.266v-105.46c0-3.1367 2.4648-5.5977 5.5977-5.5977 3.1367 0 5.5977 2.4648 5.5977 5.5977v105.46c0 41.648-33.812 75.461-75.461 75.461z"></path>
  <path d="m367.42 612.38c-41.648 0-75.461-33.812-75.461-75.461v-105.46c0-3.1367 2.4648-5.5977 5.5977-5.5977 3.1367 0 5.5977 2.4648 5.5977 5.5977v105.46c0 35.379 28.773 64.266 64.266 64.266 3.1367 0 5.5977 2.4648 5.5977 5.5977 0 3.1328-2.5742 5.5977-5.5977 5.5977z"></path>
  <path d="m539.83 647.43h-279.67c-3.1367 0-5.5977-2.4648-5.5977-5.5977v-17.465c0-12.762 10.41-23.062 23.062-23.062h244.52c12.762 0 23.062 10.41 23.062 23.062v17.465c0.22266 3.1328-2.3516 5.5977-5.375 5.5977zm-274.07-11.195h268.36v-11.867c0-6.6055-5.375-11.867-11.867-11.867h-244.52c-6.6055 0-11.98 5.375-11.98 11.867v11.867z"></path>
  <path d="m461.35 465.83h-122.59c-3.1367 0-5.5977-2.4648-5.5977-5.5977 0-3.1367 2.4648-5.5977 5.5977-5.5977h122.59c3.1367 0 5.5977 2.4648 5.5977 5.5977 0 3.1367-2.5742 5.5977-5.5977 5.5977z"></path>
 </g>

      </g>
     <g id="IconSvg_iconCarrier">
      <g xmlns="http://www.w3.org/2000/svg">
  <path d="m351.63 402.12c-2.3516 0-4.4766-1.457-5.2617-3.8047-5.1484-14.777-13.883-36.387-26.98-54.859-15.227-21.609-31.684-32.914-49.148-33.586 20.938 34.258 30.004 65.16 34.035 85.535 0.55859 3.0234-1.457 5.9336-4.4766 6.6055-3.0234 0.55859-5.9336-1.457-6.6055-4.4766-4.0312-21.047-13.883-53.629-37.504-89.566-1.0078-1.5664-1.2305-3.582-0.44922-5.375 0.78516-1.793 2.3516-2.9102 4.2539-3.2461 24.965-4.0312 48.812 8.957 68.965 37.617 13.77 19.594 23.062 42.207 28.438 57.656 1.0078 2.9102-0.55859 6.1562-3.4688 7.1641-0.56641 0.22656-1.2383 0.33594-1.7969 0.33594z"></path>
  <path d="m453.07 402.12c-0.33594 0-0.67188 0-1.1211-0.11328-3.0234-0.55859-5.0391-3.582-4.3672-6.6055 3.0234-15.004 10.078-44 23.512-69.078 17.801-33.141 41.648-49.82 68.742-48.477 1.9023 0.11328 3.582 1.1211 4.5898 2.8008 1.0078 1.6797 1.0078 3.582 0.22266 5.375-22.727 45.68-28.66 89.117-30.117 110.95-0.22266 3.1367-2.9102 5.375-5.9336 5.1484-3.1367-0.22266-5.375-2.9102-5.1484-5.9336 1.793-25.973 7.9492-64.824 27.207-106.81-19.145 2.4648-35.828 16.684-49.598 42.32-12.762 23.734-19.48 51.5-22.391 65.941-0.55859 2.5781-2.9102 4.4805-5.5977 4.4805z"></path>
  <path d="m318.72 338.76c-0.44922 0-0.78516 0-1.2305-0.11328-3.0234-0.67188-4.9258-3.582-4.2539-6.6055 0.11328-0.67187 6.8281-40.977-54.746-134.68-1.0078-1.5664-1.2305-3.582-0.44922-5.375 0.78516-1.6797 2.3516-3.0234 4.2539-3.2461 82.848-13.547 132.45 94.379 149.91 141.4 1.1211 2.9102-0.44922 6.1562-3.2461 7.1641-2.9102 1.1211-6.1562-0.44922-7.1641-3.2461-15.898-42.656-59.336-138.38-128.86-135.13 59.672 93.598 51.836 133.79 51.387 135.47-0.78516 2.5742-3.0234 4.3672-5.5977 4.3672z"></path>
  <path d="m431.01 264.3h-0.33594c-3.1367-0.11328-5.4844-2.8008-5.2617-5.9336 1.5664-31.125 6.7188-62.473 15.34-93.371-32.805 7.1641-56.762 35.602-71.43 84.641-0.89453 3.0234-4.0312 4.7031-6.9414 3.8047-2.9102-0.89453-4.5898-4.0312-3.8047-6.9414 17.016-57.098 47.918-89.566 89.344-93.934 1.9023-0.22266 3.6953 0.55859 4.9258 2.0156 1.2305 1.457 1.5664 3.3594 1.0078 5.1484-9.8516 32.805-15.676 66.277-17.352 99.305-0.12109 3.0273-2.582 5.2656-5.4922 5.2656z"></path>
  <path d="m398.88 402.12h-0.22266c-3.1367-0.11328-5.4844-2.8008-5.375-5.8203 1.0078-21.719 5.7109-77.586 26.645-127.07 9.5156-22.617 21.16-40.641 34.707-53.738 15.785-15.34 34.148-23.734 54.523-25.191 1.9023-0.11328 3.6953 0.67187 4.8125 2.1289 1.1211 1.457 1.457 3.4688 0.89453 5.2617-12.988 37.84-20.488 76.469-22.391 114.64-0.11328 3.1367-2.8008 5.4844-5.8203 5.375-3.1367-0.11328-5.4844-2.8008-5.375-5.8203 1.793-36.387 8.5078-73.109 20.152-109.27-29.668 5.5977-53.629 29.445-71.207 70.98-20.266 47.918-24.742 102.22-25.75 123.27-0.10938 2.9023-2.6836 5.2539-5.5938 5.2539z"></path>
  <path d="m520.24 437.17h-240.48c-3.1367 0-5.5977-2.4648-5.5977-5.5977v-35.043c0-3.1367 2.4648-5.5977 5.5977-5.5977h240.48c3.1367 0 5.5977 2.4648 5.5977 5.5977v35.043c0 3.0234-2.4648 5.5977-5.5977 5.5977zm-234.89-11.195h229.29v-23.848h-229.29z"></path>
  <path d="m432.58 590.89c-3.1367 0-5.5977-2.4648-5.5977-5.5977 0-3.1367 2.4648-5.5977 5.5977-5.5977 23.512 0 42.77-19.145 42.77-42.77v-63.48c0-3.1367 2.4648-5.5977 5.5977-5.5977 3.1367 0 5.5977 2.4648 5.5977 5.5977v63.48c0 29.781-24.184 53.965-53.965 53.965z"></path>
  <path d="m432.58 612.38c-3.1367 0-5.5977-2.4648-5.5977-5.5977 0-3.1367 2.4648-5.5977 5.5977-5.5977 35.379 0 64.266-28.773 64.266-64.266v-105.46c0-3.1367 2.4648-5.5977 5.5977-5.5977 3.1367 0 5.5977 2.4648 5.5977 5.5977v105.46c0 41.648-33.812 75.461-75.461 75.461z"></path>
  <path d="m367.42 612.38c-41.648 0-75.461-33.812-75.461-75.461v-105.46c0-3.1367 2.4648-5.5977 5.5977-5.5977 3.1367 0 5.5977 2.4648 5.5977 5.5977v105.46c0 35.379 28.773 64.266 64.266 64.266 3.1367 0 5.5977 2.4648 5.5977 5.5977 0 3.1328-2.5742 5.5977-5.5977 5.5977z"></path>
  <path d="m539.83 647.43h-279.67c-3.1367 0-5.5977-2.4648-5.5977-5.5977v-17.465c0-12.762 10.41-23.062 23.062-23.062h244.52c12.762 0 23.062 10.41 23.062 23.062v17.465c0.22266 3.1328-2.3516 5.5977-5.375 5.5977zm-274.07-11.195h268.36v-11.867c0-6.6055-5.375-11.867-11.867-11.867h-244.52c-6.6055 0-11.98 5.375-11.98 11.867v11.867z"></path>
  <path d="m461.35 465.83h-122.59c-3.1367 0-5.5977-2.4648-5.5977-5.5977 0-3.1367 2.4648-5.5977 5.5977-5.5977h122.59c3.1367 0 5.5977 2.4648 5.5977 5.5977 0 3.1367-2.5742 5.5977-5.5977 5.5977z"></path>
 </g>

      </g>
      </svg>