<svg id="svg" fill="#000000" stroke="#000000" width="40" height="40" version="1.1" viewBox="144 144 512 512" xmlns="http://www.w3.org/2000/svg">
    <g id="IconSvg_bgCarrier" stroke-width="0"></g>
    <g id="IconSvg_tracerCarrier" stroke-linecap="round" stroke-linejoin="round" stroke="#CCCCCC" stroke-width="0">
      <defs xmlns="http://www.w3.org/2000/svg">
  <clipPath id="a">
   <path d="m148.09 149h503.81v502h-503.81z"></path>
  </clipPath>
 </defs>
<g xmlns="http://www.w3.org/2000/svg" clip-path="url(#a)">
  <path d="m621.92 344.71c1.0156-8.0273-1.5742-16.094-7.0742-22.027-5.4961-5.9375-13.34-9.1367-21.422-8.7422-38.617-219-348.3-218.86-386.86 0-8.0742-0.38281-15.902 2.8242-21.391 8.7578-5.4883 5.9336-8.0703 13.992-7.0586 22.012-7.9531 0-15.578 3.1523-21.211 8.7695-5.6289 5.6172-8.7969 13.238-8.8164 21.188v28.52c0.011719 7.9531 3.1797 15.578 8.8125 21.195 5.6289 5.6172 13.262 8.7695 21.215 8.7656-0.97656 7.7148 1.3828 15.477 6.4844 21.344 5.1016 5.8711 12.461 9.2891 20.234 9.4023h13.832c7.0859-0.011719 13.879-2.8359 18.891-7.8477 5.0078-5.0156 7.8242-11.809 7.8281-18.895v-96.422c-0.015625-6.4648-2.3828-12.703-6.6562-17.551-4.2734-4.8516-10.164-7.9805-16.574-8.8086 7.3047-41.863 29.145-79.805 61.672-107.15 32.527-27.344 73.66-42.336 116.16-42.336 42.492 0 83.625 14.992 116.15 42.336 32.531 27.344 54.371 65.285 61.676 107.15-6.4102 0.82812-12.301 3.957-16.574 8.8086-4.2773 4.8477-6.6406 11.086-6.6602 17.551v96.445-0.003907c0.019531 6.457 2.3789 12.688 6.6367 17.535 4.2578 4.8516 10.133 7.9961 16.531 8.8477-5.668 33.207-20.496 64.168-42.82 89.395-22.32 25.227-51.246 43.715-83.516 53.383-5.25-8.2148-14.316-13.199-24.066-13.227h-59.152c-10.035 0.28125-19.188 5.7969-24.125 14.539-4.9375 8.7383-4.9375 19.426 0 28.168 4.9375 8.7383 14.09 14.254 24.125 14.535h59.152c7.6953 0.007813 15.066-3.0938 20.441-8.5977 5.375-5.5078 8.2969-12.949 8.1016-20.641 35.316-10.641 66.922-31.016 91.188-58.797 24.266-27.777 40.215-61.836 46.012-98.262 8.1523 0.48437 16.102-2.6953 21.668-8.6719 5.5703-5.9805 8.1797-14.133 7.1211-22.23 7.9492 0.011718 15.582-3.1367 21.211-8.75 5.6328-5.6133 8.8008-13.234 8.8125-21.188v-28.543c-0.015625-7.9414-3.1836-15.555-8.8008-21.172-5.6211-5.6133-13.234-8.7734-21.18-8.7852zm-443.87 73.188c-21.32-0.94531-13.223-28.023-14.684-43.23 0.003906-3.8945 1.5547-7.6289 4.3047-10.387 2.7539-2.7539 6.4844-4.3086 10.379-4.3203zm52.07-77.168v96.445c-0.33594 13.898-15.742 11.402-25.281 11.469-12.977-0.40625-11.695-13.809-11.449-23.121v-73.164c-0.3125-9.1797-1.5078-22.672 11.449-23.102 9.5156 0.070312 24.922-2.4727 25.281 11.473zm197.23 294.23h-59.152c-7.3789 0-13.359-5.9844-13.359-13.363 0-7.375 5.9805-13.359 13.359-13.359h59.152c7.3789 0 13.359 5.9844 13.359 13.359 0 7.3789-5.9805 13.363-13.359 13.363zm179.26-197.79c-0.33594 13.898-15.742 11.402-25.305 11.469-6.3242-0.011719-11.445-5.1445-11.445-11.473v-96.441c0.35938-13.898 15.742-11.426 25.305-11.469 12.977 0.38281 11.672 13.809 11.449 23.098 0.019531 7.7344-0.027344 79.371-0.003906 84.812zm30.027-33.961v-0.003906c0 3.9062-1.5586 7.6523-4.3281 10.41-2.7695 2.7539-6.5195 4.293-10.426 4.2773v-57.918c21.387 0.94531 13.289 28.047 14.754 43.23zm-269.45 62.078 2 0.83203 5.3086 33.219c2.832 10.234 17.207 6.7461 25.484 7.918 8.3203-1.2148 22.648 2.25 25.504-7.8945l5.2852-33.266c0.67578-0.26953 1.3477-0.51562 2-0.83203l27.238 19.793v-0.003906c2.6797 1.957 6.3203 1.957 9 0 10.449-7.5156 19.598-16.695 27.078-27.172 1.9453-2.6836 1.9453-6.3125 0-8.9961l-19.77-27.238c0.29297-0.67578 0.5625-1.3047 0.83203-2l33.266-5.2852c10.188-2.7422 6.7461-17.566 7.918-25.504-1.1914-7.8477 2.25-22.738-7.918-25.484l-33.266-5.2852-0.83203-1.9805 19.77-27.238c1.9648-2.6758 1.9648-6.3164 0-8.9961-7.4844-10.492-16.66-19.676-27.148-27.168-2.6758-1.9648-6.3164-1.9648-8.9961 0l-27.238 19.77c-0.67578-0.31641-1.3281-0.58594-2-0.83203l-5.2852-33.289c-0.52734-3.2344-3.0625-5.7695-6.2969-6.2969-12.711-2.1133-25.684-2.1133-38.395 0-3.2344 0.52734-5.7695 3.0625-6.2969 6.2969l-5.2422 33.469c-0.65234 0.24609-1.3047 0.53906-1.9805 0.83203l-27.281-19.746c-2.6758-1.9648-6.3164-1.9648-8.9961 0-10.445 7.5039-19.586 16.676-27.055 27.145-1.9805 2.6719-1.9805 6.3242 0 8.9961l19.793 27.215c-0.31641 0.69531-0.58594 1.3477-0.85547 2l-33.199 5.1523c-10.188 2.7891-6.7461 17.34-7.9414 25.484 1.2148 8.1875-2.25 22.695 7.9414 25.504l33.223 5.2422c0.26953 0.69531 0.53906 1.3477 0.83203 2l-19.773 27.238c-1.957 2.6797-1.957 6.3164 0 8.9961 7.5078 10.461 16.672 19.633 27.125 27.148 2.6797 1.957 6.3203 1.957 9 0zm-47.613-11.902 19.094-26.316c4.0273-5.4414-1.7109-11.133-2.9453-16.555-0.89844-2.707-3.2344-4.6836-6.0508-5.1289l-32.094-5.1289-0.003907 0.003906c-0.83203-7.5117-0.83203-15.094 0-22.605l32.094-5.082c6.7461-1.0586 6.6367-8.9961 9.625-13.789h0.003907c1.3047-2.5508 1.0625-5.6211-0.62891-7.9375l-19.094-26.25c4.7227-5.9102 10.086-11.281 15.988-16.012l26.316 19.074c5.2852 4.0273 11.516-1.8438 16.555-2.9688v-0.003907c2.7148-0.89062 4.7031-3.2266 5.1484-6.0469l5.1758-32.074c7.5117-0.83203 15.09-0.83203 22.602 0l5.1055 32.074c1.1484 6.7461 8.7734 6.5234 13.832 9.6719v-0.003906c2.5352 1.2852 5.5742 1.0391 7.875-0.62891l26.293-19.094c5.9102 4.7266 11.273 10.098 15.988 16.012l-19.094 26.246c-4.0469 5.375 1.8203 11.449 3.0156 16.598v0.003906c0.90625 2.6836 3.2109 4.6523 6.0039 5.1289l32.094 5.082c0.85547 7.5117 0.85547 15.094 0 22.605l-32.094 5.1289c-6.7461 1.1016-6.5469 8.793-9.6719 13.789v-0.003906c-1.2578 2.5508-1.0078 5.5859 0.65234 7.8945l19.094 26.316c-4.7344 5.8867-10.098 11.238-15.988 15.969l-26.293-19.074c-5.4414-4.0469-11.246 1.7109-16.578 2.9922-2.7031 0.89062-4.6797 3.2148-5.1289 6.0273l-5.2148 32.051c-7.5117 0.83203-15.094 0.83203-22.605 0l-5.1055-32.051c-0.94531-6.6367-9.2422-6.7461-13.742-9.625-2.5547-1.3203-5.6367-1.0859-7.9609 0.60547l-26.316 19.074c-5.8867-4.7188-11.238-10.074-15.945-15.969zm80.43-22.492c14.766-0.34375 28.266-8.418 35.555-21.266 7.2852-12.848 7.2852-28.582 0-41.43-7.2891-12.848-20.789-20.926-35.555-21.266-14.77 0.33984-28.27 8.418-35.555 21.266-7.2891 12.848-7.2891 28.582 0 41.43 7.2852 12.848 20.785 20.922 35.555 21.266zm0-68.688v-0.003906c9.3555 0.27344 17.891 5.4219 22.492 13.574 4.6016 8.1523 4.6016 18.121 0 26.273-4.6016 8.1523-13.137 13.301-22.492 13.57-9.2188-0.46094-17.539-5.6484-22.02-13.715-4.4805-8.0664-4.4805-17.875 0-25.941s12.801-13.25 22.02-13.715z"></path>
 </g>

      </g>
     <g id="IconSvg_iconCarrier">
      <defs xmlns="http://www.w3.org/2000/svg">
  <clipPath id="a">
   <path d="m148.09 149h503.81v502h-503.81z"></path>
  </clipPath>
 </defs>
<g xmlns="http://www.w3.org/2000/svg" clip-path="url(#a)">
  <path d="m621.92 344.71c1.0156-8.0273-1.5742-16.094-7.0742-22.027-5.4961-5.9375-13.34-9.1367-21.422-8.7422-38.617-219-348.3-218.86-386.86 0-8.0742-0.38281-15.902 2.8242-21.391 8.7578-5.4883 5.9336-8.0703 13.992-7.0586 22.012-7.9531 0-15.578 3.1523-21.211 8.7695-5.6289 5.6172-8.7969 13.238-8.8164 21.188v28.52c0.011719 7.9531 3.1797 15.578 8.8125 21.195 5.6289 5.6172 13.262 8.7695 21.215 8.7656-0.97656 7.7148 1.3828 15.477 6.4844 21.344 5.1016 5.8711 12.461 9.2891 20.234 9.4023h13.832c7.0859-0.011719 13.879-2.8359 18.891-7.8477 5.0078-5.0156 7.8242-11.809 7.8281-18.895v-96.422c-0.015625-6.4648-2.3828-12.703-6.6562-17.551-4.2734-4.8516-10.164-7.9805-16.574-8.8086 7.3047-41.863 29.145-79.805 61.672-107.15 32.527-27.344 73.66-42.336 116.16-42.336 42.492 0 83.625 14.992 116.15 42.336 32.531 27.344 54.371 65.285 61.676 107.15-6.4102 0.82812-12.301 3.957-16.574 8.8086-4.2773 4.8477-6.6406 11.086-6.6602 17.551v96.445-0.003907c0.019531 6.457 2.3789 12.688 6.6367 17.535 4.2578 4.8516 10.133 7.9961 16.531 8.8477-5.668 33.207-20.496 64.168-42.82 89.395-22.32 25.227-51.246 43.715-83.516 53.383-5.25-8.2148-14.316-13.199-24.066-13.227h-59.152c-10.035 0.28125-19.188 5.7969-24.125 14.539-4.9375 8.7383-4.9375 19.426 0 28.168 4.9375 8.7383 14.09 14.254 24.125 14.535h59.152c7.6953 0.007813 15.066-3.0938 20.441-8.5977 5.375-5.5078 8.2969-12.949 8.1016-20.641 35.316-10.641 66.922-31.016 91.188-58.797 24.266-27.777 40.215-61.836 46.012-98.262 8.1523 0.48437 16.102-2.6953 21.668-8.6719 5.5703-5.9805 8.1797-14.133 7.1211-22.23 7.9492 0.011718 15.582-3.1367 21.211-8.75 5.6328-5.6133 8.8008-13.234 8.8125-21.188v-28.543c-0.015625-7.9414-3.1836-15.555-8.8008-21.172-5.6211-5.6133-13.234-8.7734-21.18-8.7852zm-443.87 73.188c-21.32-0.94531-13.223-28.023-14.684-43.23 0.003906-3.8945 1.5547-7.6289 4.3047-10.387 2.7539-2.7539 6.4844-4.3086 10.379-4.3203zm52.07-77.168v96.445c-0.33594 13.898-15.742 11.402-25.281 11.469-12.977-0.40625-11.695-13.809-11.449-23.121v-73.164c-0.3125-9.1797-1.5078-22.672 11.449-23.102 9.5156 0.070312 24.922-2.4727 25.281 11.473zm197.23 294.23h-59.152c-7.3789 0-13.359-5.9844-13.359-13.363 0-7.375 5.9805-13.359 13.359-13.359h59.152c7.3789 0 13.359 5.9844 13.359 13.359 0 7.3789-5.9805 13.363-13.359 13.363zm179.26-197.79c-0.33594 13.898-15.742 11.402-25.305 11.469-6.3242-0.011719-11.445-5.1445-11.445-11.473v-96.441c0.35938-13.898 15.742-11.426 25.305-11.469 12.977 0.38281 11.672 13.809 11.449 23.098 0.019531 7.7344-0.027344 79.371-0.003906 84.812zm30.027-33.961v-0.003906c0 3.9062-1.5586 7.6523-4.3281 10.41-2.7695 2.7539-6.5195 4.293-10.426 4.2773v-57.918c21.387 0.94531 13.289 28.047 14.754 43.23zm-269.45 62.078 2 0.83203 5.3086 33.219c2.832 10.234 17.207 6.7461 25.484 7.918 8.3203-1.2148 22.648 2.25 25.504-7.8945l5.2852-33.266c0.67578-0.26953 1.3477-0.51562 2-0.83203l27.238 19.793v-0.003906c2.6797 1.957 6.3203 1.957 9 0 10.449-7.5156 19.598-16.695 27.078-27.172 1.9453-2.6836 1.9453-6.3125 0-8.9961l-19.77-27.238c0.29297-0.67578 0.5625-1.3047 0.83203-2l33.266-5.2852c10.188-2.7422 6.7461-17.566 7.918-25.504-1.1914-7.8477 2.25-22.738-7.918-25.484l-33.266-5.2852-0.83203-1.9805 19.77-27.238c1.9648-2.6758 1.9648-6.3164 0-8.9961-7.4844-10.492-16.66-19.676-27.148-27.168-2.6758-1.9648-6.3164-1.9648-8.9961 0l-27.238 19.77c-0.67578-0.31641-1.3281-0.58594-2-0.83203l-5.2852-33.289c-0.52734-3.2344-3.0625-5.7695-6.2969-6.2969-12.711-2.1133-25.684-2.1133-38.395 0-3.2344 0.52734-5.7695 3.0625-6.2969 6.2969l-5.2422 33.469c-0.65234 0.24609-1.3047 0.53906-1.9805 0.83203l-27.281-19.746c-2.6758-1.9648-6.3164-1.9648-8.9961 0-10.445 7.5039-19.586 16.676-27.055 27.145-1.9805 2.6719-1.9805 6.3242 0 8.9961l19.793 27.215c-0.31641 0.69531-0.58594 1.3477-0.85547 2l-33.199 5.1523c-10.188 2.7891-6.7461 17.34-7.9414 25.484 1.2148 8.1875-2.25 22.695 7.9414 25.504l33.223 5.2422c0.26953 0.69531 0.53906 1.3477 0.83203 2l-19.773 27.238c-1.957 2.6797-1.957 6.3164 0 8.9961 7.5078 10.461 16.672 19.633 27.125 27.148 2.6797 1.957 6.3203 1.957 9 0zm-47.613-11.902 19.094-26.316c4.0273-5.4414-1.7109-11.133-2.9453-16.555-0.89844-2.707-3.2344-4.6836-6.0508-5.1289l-32.094-5.1289-0.003907 0.003906c-0.83203-7.5117-0.83203-15.094 0-22.605l32.094-5.082c6.7461-1.0586 6.6367-8.9961 9.625-13.789h0.003907c1.3047-2.5508 1.0625-5.6211-0.62891-7.9375l-19.094-26.25c4.7227-5.9102 10.086-11.281 15.988-16.012l26.316 19.074c5.2852 4.0273 11.516-1.8438 16.555-2.9688v-0.003907c2.7148-0.89062 4.7031-3.2266 5.1484-6.0469l5.1758-32.074c7.5117-0.83203 15.09-0.83203 22.602 0l5.1055 32.074c1.1484 6.7461 8.7734 6.5234 13.832 9.6719v-0.003906c2.5352 1.2852 5.5742 1.0391 7.875-0.62891l26.293-19.094c5.9102 4.7266 11.273 10.098 15.988 16.012l-19.094 26.246c-4.0469 5.375 1.8203 11.449 3.0156 16.598v0.003906c0.90625 2.6836 3.2109 4.6523 6.0039 5.1289l32.094 5.082c0.85547 7.5117 0.85547 15.094 0 22.605l-32.094 5.1289c-6.7461 1.1016-6.5469 8.793-9.6719 13.789v-0.003906c-1.2578 2.5508-1.0078 5.5859 0.65234 7.8945l19.094 26.316c-4.7344 5.8867-10.098 11.238-15.988 15.969l-26.293-19.074c-5.4414-4.0469-11.246 1.7109-16.578 2.9922-2.7031 0.89062-4.6797 3.2148-5.1289 6.0273l-5.2148 32.051c-7.5117 0.83203-15.094 0.83203-22.605 0l-5.1055-32.051c-0.94531-6.6367-9.2422-6.7461-13.742-9.625-2.5547-1.3203-5.6367-1.0859-7.9609 0.60547l-26.316 19.074c-5.8867-4.7188-11.238-10.074-15.945-15.969zm80.43-22.492c14.766-0.34375 28.266-8.418 35.555-21.266 7.2852-12.848 7.2852-28.582 0-41.43-7.2891-12.848-20.789-20.926-35.555-21.266-14.77 0.33984-28.27 8.418-35.555 21.266-7.2891 12.848-7.2891 28.582 0 41.43 7.2852 12.848 20.785 20.922 35.555 21.266zm0-68.688v-0.003906c9.3555 0.27344 17.891 5.4219 22.492 13.574 4.6016 8.1523 4.6016 18.121 0 26.273-4.6016 8.1523-13.137 13.301-22.492 13.57-9.2188-0.46094-17.539-5.6484-22.02-13.715-4.4805-8.0664-4.4805-17.875 0-25.941s12.801-13.25 22.02-13.715z"></path>
 </g>

      </g>
      </svg>