<svg id="svg" fill="#000000" stroke="#000000" width="54" height="54" version="1.1" viewBox="144 144 512 512" xmlns="http://www.w3.org/2000/svg">
    <g id="IconSvg_bgCarrier" stroke-width="0"></g>
    <g id="IconSvg_tracerCarrier" stroke-linecap="round" stroke-linejoin="round" stroke="#CCCCCC" stroke-width="0">
      <path xmlns="http://www.w3.org/2000/svg" d="m189.48 197.11c-2.7852-0.011719-5.4648 1.0859-7.4414 3.0508-1.9766 1.9688-3.0898 4.6367-3.0938 7.4258-0.011718 2.7969 1.0938 5.4844 3.0742 7.4609 1.9766 1.9805 4.6641 3.0859 7.4609 3.0742h41.531l26.875 288.38h0.003907c0.49609 5.4023 5.0312 9.5352 10.453 9.5312h316.52c5.7617-0.019532 10.43-4.6875 10.453-10.453 0.011719-2.7852-1.082-5.457-3.043-7.4336-1.9609-1.9766-4.6289-3.0938-7.4102-3.1055h-306.99l-2.1523-23.145h282.04c18.078 0 30.578-15.137 32.922-31.035 9.918-45.473 19.895-91.039 29.785-136.47 3.9258-17.98-12.398-34.113-32.922-34.113h-76.383c-5.2969-40.105-40.289-71.137-82.348-71.137-42.062 0-77.07 31.027-82.371 71.137h-89.461l-5.9062-63.633c-0.49609-5.4062-5.043-9.543-10.473-9.5312zm239.34 23.023c34.574 0 62.219 27.16 62.219 60.66 0 33.496-27.641 60.598-62.219 60.598-34.574 0-62.137-27.102-62.137-60.598 0-33.496 27.562-60.66 62.137-60.66zm0 18.984v-0.003907c-2.7852 0.011719-5.4492 1.1289-7.4102 3.1055-1.9609 1.9727-3.0586 4.6484-3.0469 7.4336v20.602h-20.703c-2.7852 0.011719-5.4492 1.125-7.4102 3.1016-1.9609 1.9766-3.0586 4.6523-3.0469 7.4336 0.011719 5.7734 4.6836 10.453 10.457 10.477h20.703v20.684c0.023437 5.7656 4.6914 10.434 10.457 10.457 2.7812 0.011719 5.457-1.0859 7.4336-3.0469s3.0898-4.625 3.1016-7.4102v-20.684h20.602c2.7891 0.011719 5.4648-1.0859 7.4414-3.0508 1.9766-1.9648 3.0938-4.6367 3.0977-7.4258 0.011718-2.7969-1.0977-5.4844-3.0742-7.4609-1.9766-1.9805-4.6641-3.0859-7.4648-3.0742h-20.602v-20.602c0.011719-2.8008-1.0938-5.4844-3.0742-7.4648-1.9766-1.9766-4.6641-3.0859-7.4609-3.0742zm-169.84 52.148h87.453c5.2773 40.121 40.312 71.113 82.391 71.113s77.094-30.996 82.371-71.113h76.363c8.2852 0.41016 13.281 4.1055 12.137 10.023-10.352 47.527-20.922 95.777-29.785 136.49-1.2266 8.3008-5.2461 13.121-12.137 13.121h-283.42zm74.926 233.13c-21.766 0-39.832 17.547-39.832 39.215s18.062 39.277 39.832 39.277c21.766 0 39.895-17.609 39.895-39.277s-18.125-39.215-39.895-39.215zm186.88 0c-21.766 0-39.832 17.547-39.832 39.215s18.062 39.277 39.832 39.277c21.766 0 39.832-17.609 39.832-39.277s-18.066-39.215-39.832-39.215zm-186.88 20.992c10.656 0 18.902 8.1406 18.902 18.223 0 10.086-8.2461 18.285-18.902 18.285s-18.84-8.2031-18.84-18.285c0-10.086 8.1836-18.223 18.84-18.223zm186.88 0c10.656 0 18.84 8.1406 18.84 18.223 0 10.086-8.1836 18.285-18.84 18.285s-18.82-8.2031-18.82-18.285c0-10.086 8.1641-18.223 18.82-18.223z"></path>

      </g>
     <g id="IconSvg_iconCarrier">
      <path xmlns="http://www.w3.org/2000/svg" d="m189.48 197.11c-2.7852-0.011719-5.4648 1.0859-7.4414 3.0508-1.9766 1.9688-3.0898 4.6367-3.0938 7.4258-0.011718 2.7969 1.0938 5.4844 3.0742 7.4609 1.9766 1.9805 4.6641 3.0859 7.4609 3.0742h41.531l26.875 288.38h0.003907c0.49609 5.4023 5.0312 9.5352 10.453 9.5312h316.52c5.7617-0.019532 10.43-4.6875 10.453-10.453 0.011719-2.7852-1.082-5.457-3.043-7.4336-1.9609-1.9766-4.6289-3.0938-7.4102-3.1055h-306.99l-2.1523-23.145h282.04c18.078 0 30.578-15.137 32.922-31.035 9.918-45.473 19.895-91.039 29.785-136.47 3.9258-17.98-12.398-34.113-32.922-34.113h-76.383c-5.2969-40.105-40.289-71.137-82.348-71.137-42.062 0-77.07 31.027-82.371 71.137h-89.461l-5.9062-63.633c-0.49609-5.4062-5.043-9.543-10.473-9.5312zm239.34 23.023c34.574 0 62.219 27.16 62.219 60.66 0 33.496-27.641 60.598-62.219 60.598-34.574 0-62.137-27.102-62.137-60.598 0-33.496 27.562-60.66 62.137-60.66zm0 18.984v-0.003907c-2.7852 0.011719-5.4492 1.1289-7.4102 3.1055-1.9609 1.9727-3.0586 4.6484-3.0469 7.4336v20.602h-20.703c-2.7852 0.011719-5.4492 1.125-7.4102 3.1016-1.9609 1.9766-3.0586 4.6523-3.0469 7.4336 0.011719 5.7734 4.6836 10.453 10.457 10.477h20.703v20.684c0.023437 5.7656 4.6914 10.434 10.457 10.457 2.7812 0.011719 5.457-1.0859 7.4336-3.0469s3.0898-4.625 3.1016-7.4102v-20.684h20.602c2.7891 0.011719 5.4648-1.0859 7.4414-3.0508 1.9766-1.9648 3.0938-4.6367 3.0977-7.4258 0.011718-2.7969-1.0977-5.4844-3.0742-7.4609-1.9766-1.9805-4.6641-3.0859-7.4648-3.0742h-20.602v-20.602c0.011719-2.8008-1.0938-5.4844-3.0742-7.4648-1.9766-1.9766-4.6641-3.0859-7.4609-3.0742zm-169.84 52.148h87.453c5.2773 40.121 40.312 71.113 82.391 71.113s77.094-30.996 82.371-71.113h76.363c8.2852 0.41016 13.281 4.1055 12.137 10.023-10.352 47.527-20.922 95.777-29.785 136.49-1.2266 8.3008-5.2461 13.121-12.137 13.121h-283.42zm74.926 233.13c-21.766 0-39.832 17.547-39.832 39.215s18.062 39.277 39.832 39.277c21.766 0 39.895-17.609 39.895-39.277s-18.125-39.215-39.895-39.215zm186.88 0c-21.766 0-39.832 17.547-39.832 39.215s18.062 39.277 39.832 39.277c21.766 0 39.832-17.609 39.832-39.277s-18.066-39.215-39.832-39.215zm-186.88 20.992c10.656 0 18.902 8.1406 18.902 18.223 0 10.086-8.2461 18.285-18.902 18.285s-18.84-8.2031-18.84-18.285c0-10.086 8.1836-18.223 18.84-18.223zm186.88 0c10.656 0 18.84 8.1406 18.84 18.223 0 10.086-8.1836 18.285-18.84 18.285s-18.82-8.2031-18.82-18.285c0-10.086 8.1641-18.223 18.82-18.223z"></path>

      </g>
      </svg>