<svg id="svg" fill="#000000" stroke="#000000" width="54" height="54" version="1.1" viewBox="144 144 512 512" xmlns="http://www.w3.org/2000/svg">
    <g id="IconSvg_bgCarrier" stroke-width="0"></g>
    <g id="IconSvg_tracerCarrier" stroke-linecap="round" stroke-linejoin="round" stroke="#CCCCCC" stroke-width="0">
      <path xmlns="http://www.w3.org/2000/svg" d="m578.01 525.95c-7.0898-40.117-32-124.04-116.9-151.75 25.723-17.535 42.676-45.27 46.551-76.16 3.875-30.887-5.707-61.953-26.301-85.293-20.598-23.344-50.23-36.715-81.359-36.715-31.133 0-60.762 13.371-81.359 36.715-20.598 23.34-30.18 54.406-26.305 85.293 3.875 30.891 20.828 58.625 46.551 76.16-84.898 27.707-109.81 111.63-116.9 151.75-2.3711 13.195-0.28516 26.801 5.9336 38.676 6.2148 11.879 16.207 21.344 28.402 26.914 45.023 20.945 94.02 31.984 143.68 32.375 49.648-0.35937 98.645-11.367 143.68-32.281 12.211-5.5742 22.219-15.055 28.434-26.953 6.2188-11.895 8.2969-25.523 5.9023-38.73zm-258.53-241.36c-0.007813-21.297 8.418-41.73 23.441-56.828 15.02-15.098 35.41-23.629 56.707-23.727s41.766 8.2461 56.926 23.203c15.156 14.961 23.773 35.316 23.957 56.613 0.18359 21.297-8.0742 41.797-22.973 57.02-14.898 15.219-35.219 23.914-56.516 24.188h-2.0508c-21.16-0.29297-41.355-8.8984-56.227-23.953-14.875-15.055-23.23-35.355-23.266-56.516zm212.68 281.43c-87.699 39.605-176.61 39.605-264.31 0-6.5625-3.0195-11.926-8.1406-15.238-14.559-3.3125-6.4141-4.3867-13.754-3.0508-20.848 9.0508-51.312 40.492-136.87 148.9-137.66h3.0781c108.41 0.79297 139.95 86.488 148.9 137.66h0.003906c1.3359 7.0938 0.26172 14.434-3.0508 20.848-3.3125 6.418-8.6758 11.539-15.234 14.559z"></path>

      </g>
     <g id="IconSvg_iconCarrier">
      <path xmlns="http://www.w3.org/2000/svg" d="m578.01 525.95c-7.0898-40.117-32-124.04-116.9-151.75 25.723-17.535 42.676-45.27 46.551-76.16 3.875-30.887-5.707-61.953-26.301-85.293-20.598-23.344-50.23-36.715-81.359-36.715-31.133 0-60.762 13.371-81.359 36.715-20.598 23.34-30.18 54.406-26.305 85.293 3.875 30.891 20.828 58.625 46.551 76.16-84.898 27.707-109.81 111.63-116.9 151.75-2.3711 13.195-0.28516 26.801 5.9336 38.676 6.2148 11.879 16.207 21.344 28.402 26.914 45.023 20.945 94.02 31.984 143.68 32.375 49.648-0.35937 98.645-11.367 143.68-32.281 12.211-5.5742 22.219-15.055 28.434-26.953 6.2188-11.895 8.2969-25.523 5.9023-38.73zm-258.53-241.36c-0.007813-21.297 8.418-41.73 23.441-56.828 15.02-15.098 35.41-23.629 56.707-23.727s41.766 8.2461 56.926 23.203c15.156 14.961 23.773 35.316 23.957 56.613 0.18359 21.297-8.0742 41.797-22.973 57.02-14.898 15.219-35.219 23.914-56.516 24.188h-2.0508c-21.16-0.29297-41.355-8.8984-56.227-23.953-14.875-15.055-23.23-35.355-23.266-56.516zm212.68 281.43c-87.699 39.605-176.61 39.605-264.31 0-6.5625-3.0195-11.926-8.1406-15.238-14.559-3.3125-6.4141-4.3867-13.754-3.0508-20.848 9.0508-51.312 40.492-136.87 148.9-137.66h3.0781c108.41 0.79297 139.95 86.488 148.9 137.66h0.003906c1.3359 7.0938 0.26172 14.434-3.0508 20.848-3.3125 6.418-8.6758 11.539-15.234 14.559z"></path>

      </g>
      </svg>